# Wavefront Obj file
# 
# verts: 8 uv-s: 14
mtllib paper.mtl

g Cube.001
#pivot 0.000000 0.000000 0.000000

v -0.215900 1.574721 3.244634
v -0.215900 1.574898 3.244634
v -0.215900 1.574721 2.685834
v -0.215900 1.574898 2.685834
v 0.215900 1.574721 3.244634
v 0.215900 1.574898 3.244634
v 0.215900 1.574721 2.685834
v 0.215900 1.574898 2.685834
# 8 positions

vt 0.519697 0.980231
vt 0.500000 0.980231
vt 0.500000 0.500000
vt 0.519697 0.500000
vt 0.500000 0.480303
vt 0.019769 0.500000
vt 0.019769 0.480303
vt 0.000072 0.500000
vt 0.019769 0.980231
vt 0.000072 0.980231
vt 0.019769 0.999928
vt 0.500000 0.999928
vt 0.019769 0.000072
vt 0.500000 0.000072
# 14 texture coordinates

vn -1.000000 0.000000 0.000000
vn 0.000000 0.000000 -1.000000
vn 1.000000 0.000000 0.000000
vn 0.000000 0.000000 1.000000
vn 0.000000 -1.000000 0.000000
vn 0.000000 1.000000 0.000000
# 6 normals

usemtl default
f 1/1/1 2/2/1 4/3/1 3/4/1
f 3/5/2 4/3/2 8/6/2 7/7/2
f 7/8/3 8/6/3 6/9/3 5/10/3
f 5/11/4 6/9/4 2/2/4 1/12/4
f 3/5/5 7/7/5 5/13/5 1/14/5
f 8/6/6 4/3/6 2/2/6 6/9/6

# 6 faces
